<svg id="レイヤー_1" data-name="レイヤー 1" xmlns="http://www.w3.org/2000/svg" viewBox="0 0 532.85 61"><defs><style>.cls-1{fill:#323c99;}</style></defs><title>logo_en</title><path class="cls-1" d="M15.89,23.63a5.74,5.74,0,0,0-.26-.7,12.51,12.51,0,0,0-.93-1.75A14.14,14.14,0,0,0,10,16.62,19.33,19.33,0,0,0,4.6,14.51,17.37,17.37,0,0,0,2,14.08l0,0,0,0h9.32c0-.15-.15-.81-.39-1.74A25.89,25.89,0,0,0,9.71,8.42,27,27,0,0,0,7.84,4.8c-.58-1-1-1.62-1-1.62h0v0h0a25.74,25.74,0,0,1,6.62,9.19A41.13,41.13,0,0,1,16,23.61h0l0,0h0Z"/><path class="cls-1" d="M16.21,23.64l0,0L14.66,7.81h0l2.26-4.58,0,0,0,0V7.69h.19V3.23l0,0,0,0L19.47,7.8h0L18,23.62l0,0Zm1.72,0v0Z"/><path class="cls-1" d="M18.22,23.64l0,0a41.35,41.35,0,0,1,2.47-11.28,25.83,25.83,0,0,1,6.63-9.19h0v0s-.46.64-1.05,1.62a29.49,29.49,0,0,0-1.87,3.62,28.91,28.91,0,0,0-1.26,3.86c-.23.93-.35,1.59-.38,1.74h9.31l0,0,0,0h0a17,17,0,0,0-2.55.43,19.21,19.21,0,0,0-5.36,2.11,14.14,14.14,0,0,0-4.74,4.56,10.24,10.24,0,0,0-1.19,2.45h0l0,0Z"/><path class="cls-1" d="M6.25,19a.33.33,0,0,0-.19-.18.27.27,0,0,0-.23,0,.25.25,0,0,0-.15.15.86.86,0,0,0-.06.23c0,.09,0,.18,0,.28a1.33,1.33,0,0,1,0,.28.85.85,0,0,1-.11.26.69.69,0,0,1-.26.2.82.82,0,0,1-.3.07.78.78,0,0,1-.3-.07.92.92,0,0,1-.25-.2,1,1,0,0,1-.19-.31,1.39,1.39,0,0,1-.1-.31.67.67,0,0,1,0-.24l.22,0,.21-.05,0,.06-.11.1a.31.31,0,0,0-.06.13.29.29,0,0,0,0,.16.7.7,0,0,0,0,.18A.41.41,0,0,0,4.6,20a.34.34,0,0,0,.26,0A.25.25,0,0,0,5,19.78a.56.56,0,0,0,0-.23,2.13,2.13,0,0,0,0-.27,1.33,1.33,0,0,1,0-.28.64.64,0,0,1,.12-.25.5.5,0,0,1,.25-.19.57.57,0,0,1,.3-.07.87.87,0,0,1,.28.05.91.91,0,0,1,.23.17,1,1,0,0,1,.15.24.77.77,0,0,1,.09.31.57.57,0,0,1,0,.26l-.16,0-.19,0,0,0a.4.4,0,0,0,.1-.49"/><path class="cls-1" d="M6.16,20.14a1.19,1.19,0,0,1,.46,0,1.13,1.13,0,0,1,.44.19,1.37,1.37,0,0,1,.38.38,1.49,1.49,0,0,1,.22.46,1.16,1.16,0,0,1,0,.45,1.07,1.07,0,0,1-.16.44,1.37,1.37,0,0,1-.38.38,1.21,1.21,0,0,1-.44.18,1.24,1.24,0,0,1-.47,0,1,1,0,0,1-.43-.19,1.34,1.34,0,0,1-.37-.38,1.69,1.69,0,0,1-.23-.44,1,1,0,0,1-.05-.46.89.89,0,0,1,.15-.43,1.32,1.32,0,0,1,.39-.39,1,1,0,0,1,.44-.19m1,1.54a1,1,0,0,0,.16-.29.76.76,0,0,0,0-.3.53.53,0,0,0-.12-.28A.61.61,0,0,0,7,20.6a.78.78,0,0,0-.31-.06.91.91,0,0,0-.35.07A1.24,1.24,0,0,0,6,20.8a1.55,1.55,0,0,0-.35.3.73.73,0,0,0-.15.29.57.57,0,0,0,0,.29.58.58,0,0,0,.11.24.7.7,0,0,0,.21.21.61.61,0,0,0,.3.08.84.84,0,0,0,.37-.05A1.69,1.69,0,0,0,6.92,22a1.54,1.54,0,0,0,.29-.27"/><path class="cls-1" d="M7.34,23.63a2.87,2.87,0,0,0-.27.32L7,23.85l-.11-.11-.1-.1-.09-.08L7,23.27l.35-.35.32-.32L8,22.24l.3-.33.07.1.11.11.11.1.1.08a1.58,1.58,0,0,0-.23.2c-.1.09-.21.2-.32.32l-.23.23.39,0L8.7,23l.34,0,.24,0,.06.08L9.4,23l.07.07.08.07H9.3l-.37,0-.38,0-.29,0c0,.13-.06.27-.08.42a4.14,4.14,0,0,0-.09.46c0,.15-.05.29-.08.42s0,.23,0,.3a.77.77,0,0,0-.12-.13l-.1-.11-.11-.1-.11-.1c0-.2.09-.4.13-.6s.09-.41.13-.61h0l-.44.45"/><path class="cls-1" d="M10,26.26l-.12-.09-.12-.08L9.62,26l-.12-.07.1-.34a3.58,3.58,0,0,0,.09-.35,1.09,1.09,0,0,0-.17-.13L9.34,25l-.14-.1a.71.71,0,0,1-.14-.1l-.3.21-.28.22-.06,0-.07,0-.06-.05-.08,0,.23-.13.32-.2.38-.25.41-.26.4-.27.37-.25,0,0,.05.05.05,0,.06,0c0,.19-.1.41-.16.63s-.11.45-.16.67-.1.42-.14.63a4.26,4.26,0,0,0-.09.51m0-2.06-.36.24c-.12.07-.24.16-.35.24l.5.35c0-.14.08-.28.11-.41s.07-.27.1-.42"/><path class="cls-1" d="M13.3,27.63A1,1,0,0,1,13,27.4a.73.73,0,0,1-.14-.31,1,1,0,0,1,0-.42l.06-.23a1.8,1.8,0,0,0,0-.19c0-.06,0-.11,0-.17s0-.11,0-.17l.1-.43a2.08,2.08,0,0,0,.05-.24l.13.05.13,0,.14,0,.14,0c-.07.21-.14.4-.19.58s-.1.36-.14.55a2.14,2.14,0,0,0-.08.49.68.68,0,0,0,.06.31.39.39,0,0,0,.17.19,1.18,1.18,0,0,0,.27.1.51.51,0,0,0,.33,0,.6.6,0,0,0,.23-.22,1.5,1.5,0,0,0,.17-.36c0-.14.08-.28.12-.44s.07-.29.1-.44l.09-.45.09,0,.08,0,.08,0h.08l-.06.19-.08.27c0,.11-.06.22-.1.35s-.07.26-.1.4a1.18,1.18,0,0,1-.45.75,1,1,0,0,1-.78.07,2.13,2.13,0,0,1-.38-.14"/><path class="cls-1" d="M15.62,26.06v-.28l.15,0,.15,0,.69.83c.23.27.46.55.71.82v-.29l0-.32c0-.11,0-.22,0-.33a2.71,2.71,0,0,1,0-.29V26a.38.38,0,0,0,0-.13l.15,0h.15c0,.2,0,.39,0,.55s0,.32,0,.47,0,.28,0,.42,0,.3,0,.46v.4h-.27c-.45-.55-.91-1.11-1.41-1.67a1.15,1.15,0,0,0,0,.19c0,.06,0,.13,0,.2l0,.39c0,.13,0,.24,0,.34v.5l-.08,0h-.23a.51.51,0,0,0,0-.19c0-.11,0-.24.05-.4s0-.32,0-.51,0-.36,0-.53,0-.28,0-.39"/><path class="cls-1" d="M18.2,26.21c0-.14-.05-.28-.07-.43h.27l.15,0,.12,0,0,.44c0,.14,0,.3.05.49l.05.46q0,.27.06.48c0,.15.05.29.07.42h-.12l-.15,0H18.5l-.12,0c0-.14,0-.28,0-.43s0-.31-.05-.49l0-.45c0-.19-.05-.35-.06-.5"/><path class="cls-1" d="M20.6,26.16c0-.31.07-.6.08-.87a.33.33,0,0,0,.15,0,.3.3,0,0,0,.14-.05c0,.14,0,.31-.08.52s-.06.4-.09.63l-.09.67c0,.24-.05.45-.07.64l-.14,0-.14.05-.2-.29-.25-.35-.28-.39-.27-.38L19.11,26l-.2-.27.15,0,.15,0,.14-.05a.78.78,0,0,0,.14-.05l.22.36c.08.12.17.24.25.37l.26.39.26.37c.05-.3.09-.61.12-.91"/><path class="cls-1" d="M21.27,25.53a3.54,3.54,0,0,0-.19-.39l.29-.11.27-.11.41-.18.23-.11a.82.82,0,0,0,0,.14l0,.07,0,.06-.21.07L22,25l-.18.07-.12.05c0,.11.08.23.13.34a3.45,3.45,0,0,1,.14.34l.36-.16.33-.17,0,.09,0,.06,0,.05.05.07a7.46,7.46,0,0,0-.71.27,1.67,1.67,0,0,0,.08.2c0,.06.05.13.08.2s.11.26.17.38l.35-.16a2.79,2.79,0,0,0,.34-.18l0,.07,0,.07,0,.08,0,0-.21.08-.34.15-.31.13-.18.07-.1.05-.06,0c0-.13-.1-.26-.16-.4s-.11-.28-.18-.46L21.47,26c-.07-.17-.14-.32-.2-.45"/><path class="cls-1" d="M23.62,25.3l.08.12.26.41c.08.13.16.24.24.35l-.11.07-.13.07-.12.08-.11.07c-.06-.12-.13-.24-.21-.37s-.15-.27-.25-.42L23,25.29c-.09-.16-.18-.3-.26-.42s-.16-.24-.25-.36l.12-.06.13-.07.17-.12a2.34,2.34,0,0,1,.25-.15l.19-.12.14-.06.11,0h.11A.48.48,0,0,1,24,24a.68.68,0,0,1,.19.19.63.63,0,0,1,.09.41A.65.65,0,0,1,24,25c.2.11.39.21.6.3l.61.29-.14.07-.13.09-.13.08-.12.08-1.07-.58Zm0-1a.34.34,0,0,0-.15-.07.38.38,0,0,0-.17,0l-.21.11.47.78h0l0,0a.51.51,0,0,0,.23-.28.52.52,0,0,0-.1-.37,1,1,0,0,0-.14-.18"/><path class="cls-1" d="M24.71,23.2a.34.34,0,0,0-.13.24.25.25,0,0,0,.06.22.29.29,0,0,0,.19.11,1,1,0,0,0,.23,0l.27-.06.28-.05a.86.86,0,0,1,.28,0,.56.56,0,0,1,.25.19.72.72,0,0,1,.16.28.76.76,0,0,1,0,.3.81.81,0,0,1-.12.29A1.23,1.23,0,0,1,26,25a1.1,1.1,0,0,1-.28.18.56.56,0,0,1-.22.06c0-.07-.07-.14-.1-.2l-.1-.19.05,0a.32.32,0,0,0,.12.08.4.4,0,0,0,.15,0l.16,0a.44.44,0,0,0,.15-.1.37.37,0,0,0,.17-.27A.35.35,0,0,0,26,24.3a.29.29,0,0,0-.19-.11.66.66,0,0,0-.24,0l-.26.06a1.35,1.35,0,0,1-.28,0,.51.51,0,0,1-.27,0,.56.56,0,0,1-.26-.19.7.7,0,0,1-.15-.28.65.65,0,0,1,0-.28.7.7,0,0,1,.1-.26.93.93,0,0,1,.19-.21,1.06,1.06,0,0,1,.27-.18.8.8,0,0,1,.26-.05c0,.05,0,.1.05.15s0,.1.08.17l0,0a.42.42,0,0,0-.5,0"/><path class="cls-1" d="M25.67,22.7l-.33-.29.09-.08.11-.11.1-.11.08-.1.3.31.35.35.33.32.37.34a4.15,4.15,0,0,0,.32.27l-.09.09-.11.11-.1.11L27,24l-.3-.3c-.1-.11-.21-.22-.35-.35L26,23c-.14-.13-.25-.24-.36-.33"/><path class="cls-1" d="M26.6,21.54l-.1-.06-.07.1-.09.13-.09.15-.09.14L26.11,22l-.06-.05-.06,0-.06,0,.12-.16a.79.79,0,0,0,.12-.15c0-.05.09-.1.13-.16l.16-.22.17-.22.12-.16c0-.05.07-.1.1-.16a1,1,0,0,0,.11-.15l.06,0,.05.05.07,0,.06,0-.1.11-.12.12-.1.12-.07.1,0,0,.05,0,.15.11.67.51.4.28.35.24-.08.1a.47.47,0,0,1-.09.12l-.09.12-.07.11a2.16,2.16,0,0,0-.33-.27c-.11-.1-.24-.19-.39-.31l-.67-.5-.14-.11"/><path class="cls-1" d="M28.27,19.66l-.16-.23-.18-.24L27.75,19l.05-.07,0-.06,0-.08,0-.07c.05.06.1.15.16.24l.2.32.24.34.21.32.15.07.14.09.31.15a2.52,2.52,0,0,0,.33.14l-.08.12-.07.13-.06.13a.52.52,0,0,0-.06.13l-.27-.17a2.61,2.61,0,0,0-.28-.17l-.14-.07-.14-.07H27l.08-.12.07-.13a.91.91,0,0,0,.07-.14l.06-.13H28.4l-.13-.22"/><path class="cls-1" d="M37.13,16.9l.86-.15c.26.93.87,3.1,3.22,3.1a1.73,1.73,0,0,0,1.93-1.72c0-2.61-5.7-2.41-5.7-5.58,0-2,1.73-2.79,4.1-2.79a6.21,6.21,0,0,1,2.89.58l.2,2.36H44c-.24-.79-.59-2.35-2.59-2.35a1.63,1.63,0,0,0-1.84,1.55c0,2.38,5.88,2.23,5.88,5.53,0,2.2-2.31,3-4.52,3a7.7,7.7,0,0,1-3.24-.62Z"/><path class="cls-1" d="M46.72,15.3a5.19,5.19,0,0,1,5.33-5.54c2.86,0,5.19,1.69,5.19,5.13a5.2,5.2,0,0,1-5.34,5.54c-2.85,0-5.18-1.68-5.18-5.13m5.34,4.54c2.08,0,3-2.11,3-4.57s-.89-4.92-3.19-4.92c-2.07,0-3,2.12-3,4.58s.89,4.91,3.17,4.91"/><path class="cls-1" d="M58.06,19.8l.37-.05c.73-.11.73-.29.73-1.83V12.28c0-1.55,0-1.73-.73-1.84l-.37,0V10h4.21v.41l-.37,0c-.73.11-.73.29-.73,1.83v2.36h.46c.9,0,3.34-3.68,3.34-3.91s-.29-.23-.55-.26l-.58-.06V10h3.82v.41l-.32,0c-1,.08-2,1.67-3.88,3.74,3.28,5.41,3.57,5.63,4.31,5.63v.4H66.41c-1.31,0-1.7,0-3.87-3.71-.32-.59-.63-1.16-1.14-1.16h-.23v2.59c0,1.54,0,1.72.73,1.83l.37.05v.4H58.06Z"/><path class="cls-1" d="M67.37,19.8l.39-.09c.35-.11.57-.3,1-1.36L72.07,10A4.08,4.08,0,0,1,73,9.81l3.28,8.72c.25.66.43,1.07,1,1.19l.38.08v.4H73.26v-.4l.62-.09c.31-.05.53-.14.53-.36a1.56,1.56,0,0,0-.13-.53l-.85-2.33a6,6,0,0,0-1.54-.19,5.26,5.26,0,0,0-1.46.2l-.6,1.69a6.42,6.42,0,0,0-.31,1.1c0,.23.14.31.41.35l.83.16v.4H67.37Zm3.27-4a9.37,9.37,0,0,1,1.27-.09c.32,0,.86,0,1.29.07l-1.28-3.55h0Z"/><path class="cls-1" d="M96.45,12.93v.9a3.46,3.46,0,0,1,2.44-.9c1.39,0,2.34.67,2.34,2.75v3.05c0,.82.07,1,.63,1l.32,0v.4H98.41v-.4l.32,0c.56-.05.64-.22.64-1v-2.2c0-1.22,0-2.7-1.61-2.7a1.67,1.67,0,0,0-1.28.59v4.31c0,.82.08,1,.63,1l.32,0v.4H93.69v-.4l.33,0c.53-.05.6-.22.6-1V15.08c0-.54,0-1.24-.46-1.24a1.55,1.55,0,0,0-.5.1v-.45Z"/><path class="cls-1" d="M105.81,12.93v5.8c0,.82.07,1,.63,1l.32,0v.4H103v-.4l.32,0c.56-.06.64-.22.64-1V15.08c0-.54,0-1.24-.47-1.24a1.47,1.47,0,0,0-.49.1v-.45Zm-2.12-2.38a1.06,1.06,0,0,1,1.08-1.07,1.08,1.08,0,0,1,1.08,1.07,1.07,1.07,0,0,1-1.08,1.1,1.06,1.06,0,0,1-1.08-1.1"/><path class="cls-1" d="M108,14.46c-.29-.71-.4-.63-.82-.8l-.3-.09v-.4H111v.4l-.64.12c-.25.06-.48.08-.48.27a1.54,1.54,0,0,0,.14.52l1.5,3.91,1.38-3.8a2.48,2.48,0,0,0,.15-.65c0-.17-.23-.19-.48-.25l-.63-.12v-.4H115v.4l-.29.09c-.4.14-.52.09-.82.8l-2.44,5.64a2.06,2.06,0,0,1-1,.33Z"/><path class="cls-1" d="M121.46,19.44a4.59,4.59,0,0,1-2.94,1,3.45,3.45,0,0,1-3.62-3.65,3.62,3.62,0,0,1,3.54-3.85,2.73,2.73,0,0,1,3.06,2.52,25.6,25.6,0,0,1-4.65,1.49,2.7,2.7,0,0,0,2.75,2.59,3.93,3.93,0,0,0,1.7-.44Zm-3.21-3.56c.89-.24,1.4-.43,1.4-.43-.13-1.09-.58-1.93-1.55-1.93-1.35,0-1.35,2.44-1.35,2.72a14.71,14.71,0,0,0,1.5-.36"/><path class="cls-1" d="M127,14.73a5.37,5.37,0,0,0-1.35-.45.72.72,0,0,0-.62.31v3.76c0,1.09,0,1.29.65,1.37l.62.08v.4h-4.09v-.4l.33,0c.55-.05.63-.22.63-1V15.14c0-.54,0-1.23-.46-1.23a1.59,1.59,0,0,0-.5.09v-.4l2.6-.67A5.47,5.47,0,0,1,125,14c.32-.32,1-1.07,1.75-1.07a1.69,1.69,0,0,1,1.26.68Z"/><path class="cls-1" d="M128.42,17.76H129c.1.85.79,2.09,1.95,2.09a1,1,0,0,0,1-1c0-1.84-3.48-1.39-3.48-3.86,0-.13,0-2,2.76-2a4.14,4.14,0,0,1,1.85.43l.17,1.92h-.62c0-.51-.38-1.76-1.53-1.76a.91.91,0,0,0-.86,1c0,1.62,3.48,1.36,3.48,3.72,0,1.2-.85,2.23-2.94,2.23A4.5,4.5,0,0,1,128.7,20Z"/><path class="cls-1" d="M137.62,12.93v5.8c0,.82.08,1,.64,1l.32,0v.4h-3.77v-.4l.32,0c.56-.06.63-.22.63-1V15.08c0-.54,0-1.24-.46-1.24a1.47,1.47,0,0,0-.49.1v-.45Zm-2.12-2.38a1.09,1.09,0,1,1,1.09,1.1,1.07,1.07,0,0,1-1.09-1.1"/><path class="cls-1" d="M140.18,12.5v.66H139v.76h1.18v3.84c0,1.11,0,2.67,1.79,2.67a5,5,0,0,0,2.29-.62l-.11-.4a2.16,2.16,0,0,1-.8.12c-1.32,0-1.32-1.18-1.32-2.75V13.92h1.69v-.76H142V11.28Z"/><path class="cls-1" d="M92.43,10.44l.37,0V10H88.6v.41l.37,0c.73.11.73.29.73,1.83v6.48a4.18,4.18,0,0,1-2.22.78c-1.85,0-2.5-1-2.5-3.12V12.27c0-1.54,0-1.72.72-1.83l.38,0V10H81.87v.41l.37,0c.73.11.73.29.73,1.83v4.88c0,1.6.51,3.28,3.31,3.28a8.07,8.07,0,0,0,3.42-.9v.67h3.1v-.4l-.37-.05c-.72-.11-.72-.29-.72-1.83V12.27c0-1.54,0-1.72.72-1.83"/><path class="cls-1" d="M144.22,22.78c.34-.15,3.48-.9,3.5-2.23a2.92,2.92,0,0,0-.38-1.37l-2-4.61c-.24-.52-.27-.71-.78-.88l-.38-.12v-.4h4.12v.4l-.63.12c-.25.06-.48.11-.48.27a1.61,1.61,0,0,0,.14.52l1.52,3.87,1.39-3.87a1.91,1.91,0,0,0,.14-.52c0-.16-.24-.21-.48-.27l-.63-.12v-.4h3v.4l-.29.07c-.49.14-.73.63-1.48,2.38l-2.06,4.83c-.65,1.59-1.31,3.28-3.28,3.85Z"/><path class="cls-1" d="M17.88,46.28c-.21,1.12-.94,3.87-1.17,4.58H3.81v-1c2.29-.15,2.5-.33,2.5-2.52V37.46c0-2.18-.26-2.39-2.21-2.54V34h8.11v1c-2,.18-2.29.36-2.29,2.54V47.55c0,1.43.05,2.08,1.48,2.11,0,0,1.25,0,1.35,0a2.62,2.62,0,0,0,2.5-1A11.11,11.11,0,0,0,16.89,46Z"/><path class="cls-1" d="M28.72,51.17a2.39,2.39,0,0,1-1.61-.55,2.51,2.51,0,0,1-.68-1,9.61,9.61,0,0,1-2.76,1.51,3.42,3.42,0,0,1-3.53-3.36c0-1.37.62-2,2-2.54a22.54,22.54,0,0,0,4.19-1.72V42.41c0-1.36-.5-2.11-1.62-2.11a1.3,1.3,0,0,0-1,.52,5,5,0,0,0-.62,1.72,1,1,0,0,1-1.12.88,1.58,1.58,0,0,1-1.53-1.35c0-.47.31-.81.91-1.22A12.52,12.52,0,0,1,25.47,39a4.58,4.58,0,0,1,2.68.75A3.55,3.55,0,0,1,29.58,43v4.5c0,1.25.41,1.56.83,1.56a1.91,1.91,0,0,0,.8-.21l.29.89Zm-2.39-6.55-1.46.8a1.89,1.89,0,0,0-1.28,1.77,1.78,1.78,0,0,0,1.59,2,1.49,1.49,0,0,0,1.15-.42Z"/><path class="cls-1" d="M38.13,39.49A4.47,4.47,0,0,1,40,39a5.29,5.29,0,0,1,5.28,5.49,6.75,6.75,0,0,1-6.84,6.68,12.24,12.24,0,0,1-4.62-.94c0-.62,0-1.35,0-2v-12c0-1.48-.15-1.69-1.61-1.79v-.89a35.11,35.11,0,0,0,5-.88v7.31Zm-1,8.51a2.8,2.8,0,0,0,.15.88,2.22,2.22,0,0,0,1.85,1.2c1.38,0,2.39-1.54,2.39-4.74s-1.64-4.62-3.2-4.62a3.68,3.68,0,0,0-1.19.18Z"/><path class="cls-1" d="M53.91,39a5.78,5.78,0,0,1,6,5.88,6.13,6.13,0,1,1-12.25.28A6.13,6.13,0,0,1,53.91,39Zm-.31,1c-1.12,0-2.21,1.17-2.21,4.37s1.06,5.69,2.7,5.69c1,0,2.06-.67,2.06-4.47C56.15,42,55.21,40,53.6,40Z"/><path class="cls-1" d="M68.86,50.86H62V50c1.37-.15,1.5-.28,1.5-1.84v-5.7c0-1.3-.1-1.43-1.32-1.69v-.8a26,26,0,0,0,4.68-1v2.81C68,40,69,39,70,39a1.58,1.58,0,0,1,1.69,1.56,2.55,2.55,0,0,1-1.32,2.21.7.7,0,0,1-.81-.13c-.44-.37-.78-.78-1.22-.78s-1,.34-1.51,1.33v4.94c0,1.56.18,1.63,2,1.84Z"/><path class="cls-1" d="M81.78,51.17a2.41,2.41,0,0,1-1.61-.55,2.63,2.63,0,0,1-.68-1,9.58,9.58,0,0,1-2.75,1.51,3.42,3.42,0,0,1-3.54-3.36c0-1.37.63-2,2-2.54a22.25,22.25,0,0,0,4.19-1.72V42.41c0-1.36-.49-2.11-1.61-2.11a1.28,1.28,0,0,0-1,.52,5,5,0,0,0-.63,1.72,1,1,0,0,1-1.11.88,1.59,1.59,0,0,1-1.54-1.35c0-.47.31-.81.91-1.22A12.61,12.61,0,0,1,78.53,39a4.56,4.56,0,0,1,2.68.75A3.53,3.53,0,0,1,82.64,43v4.5c0,1.25.42,1.56.83,1.56a2,2,0,0,0,.81-.21l.28.89Zm-2.39-6.55-1.46.8a1.89,1.89,0,0,0-1.27,1.77,1.77,1.77,0,0,0,1.59,2,1.47,1.47,0,0,0,1.14-.42Z"/><path class="cls-1" d="M91.19,50.88a2.78,2.78,0,0,1-1,.29c-2,0-3.19-.94-3.19-3.3V40.61H85.29l-.15-.31.75-1H87V37.15c.88-.62,2.15-1.45,3.06-2.08l.34.21c0,.7-.07,2.08,0,4h2.6a1.12,1.12,0,0,1-.21,1.3H90.31V47c0,2,.83,2.26,1.33,2.26A3,3,0,0,0,92.88,49l.26.94Z"/><path class="cls-1" d="M100.68,39a5.78,5.78,0,0,1,6,5.88,6.12,6.12,0,1,1-12.24.28A6.12,6.12,0,0,1,100.68,39Zm-.31,1c-1.12,0-2.21,1.17-2.21,4.37s1.07,5.69,2.71,5.69c1,0,2-.67,2-4.47C102.92,42,102,40,100.37,40Z"/><path class="cls-1" d="M115.63,50.86h-6.86V50c1.38-.15,1.51-.28,1.51-1.84v-5.7c0-1.3-.11-1.43-1.33-1.69v-.8a26,26,0,0,0,4.68-1v2.81C114.8,40,115.74,39,116.8,39a1.58,1.58,0,0,1,1.69,1.56,2.55,2.55,0,0,1-1.32,2.21.7.7,0,0,1-.81-.13c-.44-.37-.78-.78-1.22-.78s-1,.34-1.51,1.33v4.94c0,1.56.18,1.63,2,1.84Z"/><path class="cls-1" d="M133,40.19c-1.25.19-1.51.45-2.16,1.85S129.47,45.34,128,49c-1.77,4.21-2.26,5.93-2.76,7.41a.89.89,0,0,1-.93.75,2,2,0,0,1-2.06-1.66c0-.42.16-.63.7-1a5.29,5.29,0,0,0,2.19-1.88,10,10,0,0,0,.65-1.45,1.34,1.34,0,0,0-.11-1c-1.35-3.74-3-7.31-3.48-8.4a2.09,2.09,0,0,0-2-1.59v-.88h6.5v.88c-1.12.19-1.3.37-1,1.18l2,5.48c.57-1.43,1.5-3.82,2-5.28.26-.83-.08-1.17-1.38-1.38v-.88H133Z"/><path class="cls-1" d="M146.89,39a5.79,5.79,0,0,1,6,5.88,6.13,6.13,0,1,1-12.25.28A6.13,6.13,0,0,1,146.89,39Zm-.32,1c-1.11,0-2.21,1.17-2.21,4.37s1.07,5.69,2.71,5.69c1,0,2.05-.67,2.05-4.47C149.12,42,148.19,40,146.57,40Z"/><path class="cls-1" d="M156.48,39.31v-.54A6.38,6.38,0,0,1,159,34a5.87,5.87,0,0,1,3.2-1.35,3.27,3.27,0,0,1,2.26.73,1.06,1.06,0,0,1,.23,1.17,2.15,2.15,0,0,1-.93,1.14.7.7,0,0,1-1-.05c-.63-.65-1.41-1.48-2.14-1.48s-.8.7-.78,4v1.12h2.4a1.39,1.39,0,0,1-.37,1.3h-2V48c0,1.61.19,1.74,1.85,1.95v.89H155V50c1.45-.21,1.53-.34,1.53-1.95V40.61h-1.72l-.13-.34.68-1Z"/><path class="cls-1" d="M186.38,51c-.16,0-.47,0-.78,0-3.3-.16-4.26-.86-5-2a46.1,46.1,0,0,1-2.68-4.58,1.47,1.47,0,0,0-1.59-.86l-.52,0v3.79c0,2.11.26,2.29,2.21,2.52v1H170v-1c2-.2,2.21-.41,2.21-2.52v-10c0-2-.26-2.34-2.21-2.49V34h7.54c2.31,0,3.64.26,4.7,1A4,4,0,0,1,184,38.4c0,2.32-1.53,3.54-3.25,4.21.39.78,1.41,2.47,2.19,3.67a21.26,21.26,0,0,0,2,2.7,3.18,3.18,0,0,0,1.64,1.15Zm-9.91-8.5a3.79,3.79,0,0,0,2.55-.68,3.67,3.67,0,0,0,1.22-3c0-2.76-1.58-3.74-3-3.74-.7,0-1,.1-1.19.26s-.24.46-.24,1v6.22Z"/><path class="cls-1" d="M197.82,48.31a6,6,0,0,1-4.76,2.86c-3.48,0-5.46-2.58-5.46-5.67a6.85,6.85,0,0,1,2-4.68A5.83,5.83,0,0,1,193.61,39a4.27,4.27,0,0,1,4.29,4.24c0,.44,0,.88-.34,1-.49.13-4.16.31-6.68.42.1,2.75,1.64,4.16,3.51,4.16a4.52,4.52,0,0,0,3-1.17Zm-4.73-8.25c-1,0-1.93,1.23-2.08,3.28l3.14-.08c.37,0,.52-.07.52-.52C194.7,41.44,194.1,40.06,193.09,40.06Z"/><path class="cls-1" d="M207.28,42.69c-.67-1.82-1.56-2.65-2.78-2.65a1.34,1.34,0,0,0-1.38,1.38c0,.91.65,1.4,2,2,2.11.94,3.54,1.82,3.54,3.87,0,2.6-2.47,3.88-4.73,3.88a8.58,8.58,0,0,1-3.3-.78c-.11-.6-.34-2.39-.42-3.3l.86-.16c.54,1.64,1.61,3.17,3.3,3.17a1.32,1.32,0,0,0,1.48-1.35c0-.81-.39-1.4-2-2.18s-3.38-1.75-3.38-3.9S202.16,39,204.92,39a11.9,11.9,0,0,1,2.8.39c.08.7.32,2.37.42,3.07Z"/><path class="cls-1" d="M216,50.88a2.88,2.88,0,0,1-1,.29c-2,0-3.2-.94-3.2-3.3V40.61h-1.67l-.15-.31.75-1h1.07V37.15c.88-.62,2.16-1.45,3.07-2.08l.33.21c0,.7-.07,2.08,0,4h2.6a1.11,1.11,0,0,1-.21,1.3h-2.39V47c0,2,.83,2.26,1.33,2.26a3,3,0,0,0,1.25-.26l.26.94Z"/><path class="cls-1" d="M225.46,39a5.79,5.79,0,0,1,6,5.88,6.13,6.13,0,1,1-12.25.28A6.13,6.13,0,0,1,225.46,39Zm-.32,1c-1.11,0-2.21,1.17-2.21,4.37s1.07,5.69,2.71,5.69c1,0,2.05-.67,2.05-4.47C227.69,42,226.76,40,225.14,40Z"/><path class="cls-1" d="M240.41,50.86h-6.87V50c1.38-.15,1.51-.28,1.51-1.84v-5.7c0-1.3-.1-1.43-1.33-1.69v-.8a25.86,25.86,0,0,0,4.68-1v2.81c1.17-1.8,2.11-2.76,3.18-2.76a1.58,1.58,0,0,1,1.69,1.56,2.53,2.53,0,0,1-1.33,2.21.71.71,0,0,1-.81-.13c-.44-.37-.78-.78-1.22-.78s-1,.34-1.51,1.33v4.94c0,1.56.19,1.63,2,1.84Z"/><path class="cls-1" d="M253.33,51.17a2.39,2.39,0,0,1-1.61-.55,2.51,2.51,0,0,1-.68-1,9.61,9.61,0,0,1-2.76,1.51,3.42,3.42,0,0,1-3.53-3.36c0-1.37.62-2,2-2.54a22.54,22.54,0,0,0,4.19-1.72V42.41c0-1.36-.5-2.11-1.62-2.11a1.3,1.3,0,0,0-1,.52,5,5,0,0,0-.62,1.72,1,1,0,0,1-1.12.88A1.59,1.59,0,0,1,245,42.07c0-.47.31-.81.91-1.22A12.52,12.52,0,0,1,250.08,39a4.58,4.58,0,0,1,2.68.75,3.55,3.55,0,0,1,1.43,3.2v4.5c0,1.25.41,1.56.83,1.56a1.91,1.91,0,0,0,.8-.21l.29.89Zm-2.39-6.55-1.46.8a1.89,1.89,0,0,0-1.28,1.77,1.78,1.78,0,0,0,1.59,2,1.48,1.48,0,0,0,1.15-.42Z"/><path class="cls-1" d="M262.74,50.88a2.83,2.83,0,0,1-1,.29c-2,0-3.2-.94-3.2-3.3V40.61h-1.66l-.16-.31.76-1h1.06V37.15c.89-.62,2.16-1.45,3.07-2.08l.34.21c0,.7-.08,2.08-.05,4h2.6a1.12,1.12,0,0,1-.21,1.3h-2.39V47c0,2,.83,2.26,1.32,2.26a3,3,0,0,0,1.25-.26l.26.94Z"/><path class="cls-1" d="M266.17,50.86V50c1.41-.18,1.56-.28,1.56-2.13V42.77c0-1.74-.13-1.85-1.35-2v-.86a27.85,27.85,0,0,0,4.71-.94v8.87c0,1.77.1,1.95,1.61,2.13v.89Zm3-13.47a1.9,1.9,0,0,1-1.87-1.85,1.88,1.88,0,0,1,1.9-1.85,1.83,1.83,0,0,1,1.87,1.85A1.86,1.86,0,0,1,269.21,37.39Z"/><path class="cls-1" d="M280.86,39a5.78,5.78,0,0,1,6,5.88,6.12,6.12,0,1,1-12.24.28A6.12,6.12,0,0,1,280.86,39Zm-.31,1c-1.12,0-2.21,1.17-2.21,4.37s1.07,5.69,2.7,5.69c1,0,2.06-.67,2.06-4.47C283.1,42,282.16,40,280.55,40Z"/><path class="cls-1" d="M296.41,50.86V50c1.09-.15,1.17-.26,1.17-2V43.47c0-1.84-.91-2.42-1.82-2.42a3.17,3.17,0,0,0-1.95.78v6.3c0,1.58.1,1.69,1.17,1.84v.89h-6V50c1.35-.23,1.51-.26,1.51-1.95V42.61c0-1.56-.21-1.63-1.36-1.87v-.83a26.66,26.66,0,0,0,4.76-1c0,.37-.05,1.27-.05,1.87.52-.36,1.07-.75,1.66-1.11a3.57,3.57,0,0,1,2-.68c2.11,0,3.43,1.53,3.43,4.19V48.1c0,1.61.16,1.69,1.41,1.87v.89Z"/><path class="cls-1" d="M325.06,46.44c-.13.7-.86,3.69-1.09,4.42h-13.5v-.94c2.37-.23,2.53-.36,2.53-2.55V37.44c0-2.21-.31-2.37-2.08-2.52V34h8.45c2.73,0,3.64,0,4-.05,0,.47.16,2.6.26,4.21l-1,.14a6.57,6.57,0,0,0-1.12-2.42c-.47-.52-.81-.68-2.13-.68h-1.69c-1,0-1.1.05-1.1.94v5.43h2.55c1.46,0,1.72-.39,2.11-2.23h1v5.79h-1c-.42-1.92-.62-2.23-2.13-2.23h-2.53v4.47c0,1.79.06,2.34,1.67,2.37h1.85c1.45,0,1.84-.19,2.41-.89a11.55,11.55,0,0,0,1.59-2.6Z"/><path class="cls-1" d="M337.51,48.33A6,6,0,0,1,333,51.17a5.49,5.49,0,0,1-5.69-5.59,6.19,6.19,0,0,1,2.65-5A7.6,7.6,0,0,1,334.47,39a4.15,4.15,0,0,1,2.29.62,1.1,1.1,0,0,1,.49,1A1.64,1.64,0,0,1,336.08,42a.83.83,0,0,1-.57-.28,4.63,4.63,0,0,0-2.7-1.36c-1,0-2.24,1-2.24,3.8,0,3.46,2.52,4.58,3.64,4.58a3.85,3.85,0,0,0,2.78-1.1Z"/><path class="cls-1" d="M345.42,39a5.79,5.79,0,0,1,6,5.88,6.13,6.13,0,1,1-12.25.28A6.13,6.13,0,0,1,345.42,39Zm-.31,1c-1.12,0-2.21,1.17-2.21,4.37s1.06,5.69,2.7,5.69c1,0,2-.67,2-4.47C347.65,42,346.72,40,345.11,40Z"/><path class="cls-1" d="M353.37,50.86V50c1.49-.23,1.54-.36,1.54-2V36.14c0-1.35-.16-1.51-1.51-1.8v-.83a26.76,26.76,0,0,0,4.86-.88V48c0,1.72.08,1.82,1.56,2v.89Z"/><path class="cls-1" d="M368,39a5.79,5.79,0,0,1,6,5.88,6.13,6.13,0,1,1-12.25.28A6.13,6.13,0,0,1,368,39Zm-.32,1c-1.11,0-2.21,1.17-2.21,4.37s1.07,5.69,2.71,5.69c1,0,2-.67,2-4.47C370.27,42,369.34,40,367.72,40Z"/><path class="cls-1" d="M380.23,46.8a1.56,1.56,0,0,0-.47.88c0,.42.5,1,1.49,1h2.93c1.59,0,3.9.65,3.9,3.19,0,2.94-3.58,5.28-7,5.28S376.1,55.46,376.1,54a1.59,1.59,0,0,1,.78-1.43c.7-.5,1.37-.94,1.95-1.3a3.73,3.73,0,0,1-1.95-1.46,2.21,2.21,0,0,1-.42-1.43,8,8,0,0,0,2.81-1.9Zm1.25.26c-3,0-4.89-1.59-4.89-3.93,0-2.8,2.7-4.13,5-4.13a6.29,6.29,0,0,1,2.94.68,19.26,19.26,0,0,0,3.59-.37l.13.21a3.29,3.29,0,0,1-1,1.61c-.44,0-1.17-.1-1.54-.13a3.17,3.17,0,0,1,.63,2.13C386.42,45.73,384,47.06,381.48,47.06Zm.31,4.32a3.58,3.58,0,0,0-2.37.49,1.88,1.88,0,0,0-.72,1.43c0,1.38,1.3,2.44,3.53,2.44,2,0,3.25-.93,3.25-2.34a1.79,1.79,0,0,0-1.43-1.79A8.36,8.36,0,0,0,381.79,51.38ZM381.5,40c-.8,0-1.61,1-1.61,2.86s.6,3.22,1.82,3.22c1,0,1.59-1.06,1.59-2.94C383.3,41.5,382.75,40,381.5,40Z"/><path class="cls-1" d="M402.25,40.19c-1.25.19-1.5.45-2.16,1.85s-1.37,3.3-2.88,6.92c-1.77,4.21-2.26,5.93-2.76,7.41a.89.89,0,0,1-.93.75,2,2,0,0,1-2.06-1.66c0-.42.16-.63.7-1a5.29,5.29,0,0,0,2.19-1.88,10,10,0,0,0,.65-1.45,1.34,1.34,0,0,0-.11-1c-1.35-3.74-3-7.31-3.48-8.4a2.09,2.09,0,0,0-2-1.59v-.88h6.5v.88c-1.12.19-1.3.37-1,1.18l2,5.48c.57-1.43,1.51-3.82,2-5.28.26-.83-.08-1.17-1.37-1.38v-.88h4.75Z"/><path class="cls-1" d="M416.79,45.86h-6.56l.21-2H417Z"/><path class="cls-1" d="M434,38.45a8,8,0,0,0-1.12-2.55c-.46-.54-.67-.75-2.21-.75H429V47.37c0,2.19.26,2.34,2.57,2.52v1h-8.63v-1c2.21-.18,2.45-.33,2.45-2.52V35.15h-1.59c-1.46,0-1.87.23-2.37.86a10.08,10.08,0,0,0-1.06,2.47h-1c.18-1.9.36-3.93.42-5.18h.78c.39.6.7.65,1.48.65h10.4A1.72,1.72,0,0,0,434,33.3h.75c0,1.1.13,3.39.26,5.08Z"/><path class="cls-1" d="M441,39a5.78,5.78,0,0,1,6,5.88,6.12,6.12,0,1,1-12.24.28A6.12,6.12,0,0,1,441,39Zm-.31,1c-1.12,0-2.21,1.17-2.21,4.37s1.07,5.69,2.71,5.69c1,0,2-.67,2-4.47C443.28,42,442.34,40,440.73,40Z"/><path class="cls-1" d="M462.75,50.18a43.5,43.5,0,0,0-5.09,1v-1.5c-.47.31-1.12.7-1.59,1a2.41,2.41,0,0,1-1.3.47,5.6,5.6,0,0,1-5.36-5.77c0-3.57,3.15-6.4,7.21-6.4a5.74,5.74,0,0,1,1,.08v-3c0-1.38-.13-1.51-1.74-1.72v-.86a36.38,36.38,0,0,0,5.12-.88V47.58c0,1.4.15,1.53,1.14,1.66l.57.08Zm-5.09-8.71a2,2,0,0,0-2-1.3c-.81,0-2.55.55-2.55,4.32,0,3.4,1.9,4.65,3.07,4.68a2.36,2.36,0,0,0,1.43-.45Z"/><path class="cls-1" d="M473.15,51.17a2.41,2.41,0,0,1-1.61-.55,2.59,2.59,0,0,1-.67-1,9.74,9.74,0,0,1-2.76,1.51,3.42,3.42,0,0,1-3.54-3.36c0-1.37.63-2,2-2.54a22.39,22.39,0,0,0,4.18-1.72V42.41c0-1.36-.49-2.11-1.61-2.11a1.28,1.28,0,0,0-1,.52,4.83,4.83,0,0,0-.62,1.72,1,1,0,0,1-1.12.88,1.59,1.59,0,0,1-1.54-1.35c0-.47.32-.81.91-1.22A12.61,12.61,0,0,1,469.9,39a4.56,4.56,0,0,1,2.68.75A3.53,3.53,0,0,1,474,43v4.5c0,1.25.42,1.56.83,1.56a2,2,0,0,0,.81-.21l.29.89Zm-2.39-6.55-1.45.8A1.89,1.89,0,0,0,468,47.19a1.78,1.78,0,0,0,1.59,2,1.46,1.46,0,0,0,1.14-.42Z"/><path class="cls-1" d="M497.64,46.28c-.2,1.12-.93,3.87-1.17,4.58H483.58v-1c2.29-.15,2.49-.33,2.49-2.52V37.46c0-2.18-.26-2.39-2.21-2.54V34H492v1c-2,.18-2.29.36-2.29,2.54V47.55c0,1.43.05,2.08,1.48,2.11.05,0,1.25,0,1.35,0a2.64,2.64,0,0,0,2.5-1,11.11,11.11,0,0,0,1.64-2.7Z"/><path class="cls-1" d="M508.49,51.17a2.44,2.44,0,0,1-1.62-.55,2.59,2.59,0,0,1-.67-1,9.61,9.61,0,0,1-2.76,1.51,3.42,3.42,0,0,1-3.53-3.36c0-1.37.62-2,2-2.54a22.1,22.1,0,0,0,4.18-1.72V42.41c0-1.36-.49-2.11-1.61-2.11a1.3,1.3,0,0,0-1,.52,5,5,0,0,0-.62,1.72,1,1,0,0,1-1.12.88,1.58,1.58,0,0,1-1.53-1.35c0-.47.31-.81.91-1.22A12.52,12.52,0,0,1,505.24,39a4.53,4.53,0,0,1,2.67.75,3.53,3.53,0,0,1,1.43,3.2v4.5c0,1.25.42,1.56.84,1.56a1.91,1.91,0,0,0,.8-.21l.29.89Zm-2.4-6.55-1.45.8a1.89,1.89,0,0,0-1.28,1.77,1.78,1.78,0,0,0,1.59,2,1.46,1.46,0,0,0,1.14-.42Z"/><path class="cls-1" d="M517.9,39.49a4.47,4.47,0,0,1,1.84-.49A5.29,5.29,0,0,1,525,44.49a6.75,6.75,0,0,1-6.84,6.68,12.24,12.24,0,0,1-4.62-.94c0-.62,0-1.35,0-2v-12c0-1.48-.15-1.69-1.61-1.79v-.89a35.11,35.11,0,0,0,5-.88v7.31Zm-1,8.51a2.54,2.54,0,0,0,.15.88,2.22,2.22,0,0,0,1.85,1.2c1.38,0,2.39-1.54,2.39-4.74s-1.64-4.62-3.2-4.62a3.68,3.68,0,0,0-1.19.18Z"/></svg>