<svg id="レイヤー_1" data-name="レイヤー 1" xmlns="http://www.w3.org/2000/svg" viewBox="0 0 321.8 62.36"><defs><style>.cls-1,.cls-2{fill:#323c99;}.cls-2{font-size:16px;font-family:KozGoPr6N-Medium-83pv-RKSJ-H, Kozuka Gothic Pr6N;}</style></defs><title>logo</title><path class="cls-1" d="M17.55,23.13a5.27,5.27,0,0,0-.26-.67,10.91,10.91,0,0,0-.91-1.67,13.5,13.5,0,0,0-4.62-4.36,19.24,19.24,0,0,0-5.24-2A19.6,19.6,0,0,0,4,14s0,0,0,0,0,0,0,0h9.09c0-.14-.14-.77-.37-1.66a26.45,26.45,0,0,0-1.23-3.69A26.72,26.72,0,0,0,9.69,5.14c-.57-.94-1-1.55-1-1.55s0,0,0,0h0a24.75,24.75,0,0,1,6.47,8.78A38.49,38.49,0,0,1,17.6,23.12h0l0,0h0s0,0,0,0"/><path class="cls-1" d="M17.86,23.14s0,0,0,0L16.35,8h0l2.2-4.37s0,0,0,0a0,0,0,0,1,0,0V7.9h.18V3.63a0,0,0,0,1,0,0s0,0,0,0L21.05,8h0L19.57,23.13H17.86Zm1.68,0v0Z"/><path class="cls-1" d="M19.82,23.14s0,0,0,0a38.1,38.1,0,0,1,2.41-10.79,24.66,24.66,0,0,1,6.46-8.78h0s0,0,0,0-.44.61-1,1.55a28.05,28.05,0,0,0-1.82,3.45,26.45,26.45,0,0,0-1.23,3.69c-.23.89-.35,1.52-.38,1.66h9.09a0,0,0,0,1,0,0,0,0,0,0,1,0,0,17.48,17.48,0,0,0-2.49.41,19.19,19.19,0,0,0-5.23,2A13.64,13.64,0,0,0,21,20.79a9.83,9.83,0,0,0-1.16,2.34h0s0,0,0,0Z"/><path class="cls-1" d="M8.14,18.72A.33.33,0,0,0,8,18.55a.3.3,0,0,0-.38.14.64.64,0,0,0-.06.22c0,.08,0,.17,0,.26a.83.83,0,0,1,0,.27.77.77,0,0,1-.1.25.7.7,0,0,1-.25.18.66.66,0,0,1-.3.07.59.59,0,0,1-.29-.07.81.81,0,0,1-.24-.17,1.38,1.38,0,0,1-.2-.31A1,1,0,0,1,6,19.1a.44.44,0,0,1,0-.23l.21,0,.21,0,0,.05-.1.1a.83.83,0,0,0-.07.13.37.37,0,0,0,0,.15.3.3,0,0,0,.05.17.37.37,0,0,0,.2.22.46.46,0,0,0,.26,0,.25.25,0,0,0,.15-.15A.5.5,0,0,0,7,19.24,2.28,2.28,0,0,0,7,19a.8.8,0,0,1,0-.26.58.58,0,0,1,.11-.24.57.57,0,0,1,.25-.19.82.82,0,0,1,.29-.07,1.07,1.07,0,0,1,.27.06.57.57,0,0,1,.22.16.79.79,0,0,1,.16.23.91.91,0,0,1,.08.29.52.52,0,0,1,0,.25l-.15,0-.19,0,0,0a.38.38,0,0,0,.1-.47"/><path class="cls-1" d="M8,19.8a.9.9,0,0,1,.46,0,1,1,0,0,1,.43.17,1.3,1.3,0,0,1,.37.37,1.59,1.59,0,0,1,.22.43,1,1,0,0,1-.11.86A1.32,1.32,0,0,1,9,22a1.09,1.09,0,0,1-.43.18,1.14,1.14,0,0,1-.45,0A1.3,1.3,0,0,1,7.73,22a1.58,1.58,0,0,1-.37-.36,1.89,1.89,0,0,1-.21-.43,1,1,0,0,1-.06-.44.82.82,0,0,1,.15-.41A1.25,1.25,0,0,1,7.62,20,1,1,0,0,1,8,19.8m1,1.46A.81.81,0,0,0,9.23,21a.71.71,0,0,0,0-.29.77.77,0,0,0-.11-.27.6.6,0,0,0-.23-.19.7.7,0,0,0-.31-.07.91.91,0,0,0-.35.07,1.94,1.94,0,0,0-.35.18,1.41,1.41,0,0,0-.33.3.72.72,0,0,0-.16.28.76.76,0,0,0,0,.26.66.66,0,0,0,.11.24.68.68,0,0,0,.5.28,1.2,1.2,0,0,0,.36-.05,2.05,2.05,0,0,0,.42-.21,1.22,1.22,0,0,0,.29-.26"/><path class="cls-1" d="M9.2,23.13l-.27.3s0-.06-.07-.09l-.11-.1-.11-.1-.09-.08.31-.27.34-.34.32-.31.33-.34a4.12,4.12,0,0,0,.28-.31l.08.09a.47.47,0,0,0,.1.1l.11.1.1.08-.23.19-.31.3-.22.22.38,0,.38-.05.35,0,.22,0,.06.08.07.07a.33.33,0,0,1,.06.06.35.35,0,0,1,.09.06h-.25l-.37,0-.37,0-.28,0c0,.13,0,.26-.08.41l-.09.44c0,.15,0,.27-.07.4a2.06,2.06,0,0,0,0,.28l-.12-.13-.11-.09L9.5,24l-.11-.09.12-.58c.05-.2.08-.39.13-.58h0l-.43.43"/><path class="cls-1" d="M11.78,25.64l-.12-.09a.5.5,0,0,1-.12-.08l-.11-.07-.12-.08c0-.1.06-.21.1-.32l.09-.33-.17-.12-.17-.12a.71.71,0,0,1-.14-.1l-.14-.09-.29.2-.28.21-.05,0-.07-.05-.06,0-.08-.05.22-.13.32-.19c.11-.07.24-.16.37-.23l.4-.26.39-.26.36-.23,0,0,.06,0a.09.09,0,0,0,0,0l.06,0c-.05.19-.11.39-.16.61s-.11.42-.16.63-.09.41-.13.6a2.88,2.88,0,0,0-.09.49m0-2c-.12.09-.24.15-.35.23l-.34.23.49.34a3.69,3.69,0,0,1,.1-.39,4.11,4.11,0,0,0,.1-.41"/><path class="cls-1" d="M15,27a.73.73,0,0,1-.27-.22.6.6,0,0,1-.14-.3.88.88,0,0,1,0-.39c0-.08,0-.16.06-.22s0-.13.05-.18a.85.85,0,0,1,0-.17s0-.1,0-.16.08-.3.1-.41a2,2,0,0,0,.05-.23l.13,0,.13,0,.13,0,.13,0c-.07.19-.13.38-.18.55s-.09.35-.14.52a1.9,1.9,0,0,0-.07.47.67.67,0,0,0,.05.3.35.35,0,0,0,.17.17.67.67,0,0,0,.26.1.41.41,0,0,0,.33,0,.55.55,0,0,0,.22-.21,1.35,1.35,0,0,0,.17-.34c0-.13.07-.27.11-.42s.07-.28.11-.42.06-.29.08-.43l.09,0s0,0,.07,0h.16c0,.05,0,.11-.05.18a1.73,1.73,0,0,0-.08.27c0,.1-.07.21-.1.33s-.07.25-.1.38a1.15,1.15,0,0,1-.44.72,1,1,0,0,1-.76.07A2,2,0,0,1,15,27"/><path class="cls-1" d="M17.28,25.45v-.27l.14,0h.16c.23.26.45.53.68.78s.44.53.68.8v-.6c0-.1,0-.2,0-.3s0-.2,0-.28a2,2,0,0,0,0-.23c0-.06,0-.1,0-.12l.14,0h.15c0,.19,0,.37,0,.53s0,.3,0,.44,0,.28,0,.41,0,.28,0,.44l0,.38h-.26c-.43-.53-.88-1.06-1.37-1.6a1.15,1.15,0,0,0,0,.19c0,.06,0,.12,0,.18l0,.38c0,.13,0,.24,0,.32v.48H17.3a.38.38,0,0,0-.15,0s0-.08,0-.19,0-.23,0-.38,0-.31,0-.49,0-.35,0-.5v-.38"/><path class="cls-1" d="M19.8,25.6c0-.14-.05-.27-.07-.41H20l.14,0,.12,0,0,.41a4.45,4.45,0,0,0,.05.47l.05.44c0,.18,0,.33.06.47l.06.4h-.12l-.14,0-.15,0H20c0-.12,0-.26,0-.4s0-.29,0-.46l-.05-.44c0-.18-.05-.33-.06-.47"/><path class="cls-1" d="M22.14,25.55q.06-.45.09-.84l.14,0a.48.48,0,0,0,.14-.05c0,.14-.05.3-.08.49s-.06.39-.09.61l-.09.64c0,.22-.05.43-.07.62L22,27l-.13,0c-.06-.07-.12-.16-.2-.27l-.24-.34c-.08-.12-.18-.24-.27-.37l-.27-.36-.24-.33-.19-.25.15,0,.14,0,.14,0,.13,0,.22.34c.07.11.16.23.24.36l.26.36.25.36c0-.29.08-.58.11-.87"/><path class="cls-1" d="M22.8,24.94l-.18-.37.27-.1.27-.11.4-.17.22-.11,0,.13,0,.08,0,.05-.2.07-.21.07-.18.07-.11,0c0,.11.08.22.13.33s.09.21.13.32l.36-.16.32-.15a.45.45,0,0,0,0,.08s0,0,0,.06l0,.05,0,.06-.7.26c0,.07.06.13.08.19a1.11,1.11,0,0,0,.09.19c.05.13.11.25.17.37l.33-.15.34-.18s0,.05,0,.06a.34.34,0,0,1,0,.08l0,.07,0,0-.21.08-.33.14-.29.12-.18.07-.11.05-.05,0c-.05-.13-.09-.25-.15-.38l-.18-.44-.18-.4c-.06-.16-.13-.31-.19-.44"/><path class="cls-1" d="M25.1,24.72l.07.11c.09.16.18.29.26.41l.23.33-.11.06-.12.08-.13.07-.1.07c-.06-.12-.13-.24-.2-.36l-.25-.41-.23-.37c-.09-.15-.18-.28-.26-.4L24,24l.1,0,.13-.08a1.2,1.2,0,0,0,.17-.11l.24-.15.18-.1.14-.06a.27.27,0,0,1,.12,0h.09a.51.51,0,0,1,.41.25.54.54,0,0,1,.1.39.85.85,0,0,1-.21.38c.18.1.38.19.57.28l.6.28-.13.07-.13.07-.12.08a.62.62,0,0,0-.12.08l-1.05-.56Zm0-.94a.24.24,0,0,0-.15-.06.21.21,0,0,0-.16,0,.65.65,0,0,0-.21.1c.16.25.31.5.46.75l0,0h0a.46.46,0,0,0,.22-.27.48.48,0,0,0-.08-.35.74.74,0,0,0-.15-.18"/><path class="cls-1" d="M26.16,22.72a.41.41,0,0,0-.14.22.28.28,0,0,0,.06.22.26.26,0,0,0,.18.1,1,1,0,0,0,.24,0l.26-.06.28-.05a.84.84,0,0,1,.27,0,.59.59,0,0,1,.25.19.68.68,0,0,1,.15.26.7.7,0,0,1,0,.29,1.24,1.24,0,0,1-.11.28,1.52,1.52,0,0,1-.25.26,1.64,1.64,0,0,1-.26.17.6.6,0,0,1-.23.06l-.09-.19a1.62,1.62,0,0,0-.1-.18l.05,0a.47.47,0,0,0,.12.07.37.37,0,0,0,.15,0,.4.4,0,0,0,.15,0l.15-.09a.36.36,0,0,0,.16-.26.34.34,0,0,0-.08-.23.31.31,0,0,0-.19-.11.83.83,0,0,0-.22,0,2.44,2.44,0,0,0-.26.06.84.84,0,0,1-.27,0,.83.83,0,0,1-.27,0,.62.62,0,0,1-.25-.19.87.87,0,0,1-.15-.26.62.62,0,0,1,0-.27.71.71,0,0,1,.28-.46,1.64,1.64,0,0,1,.26-.17.79.79,0,0,1,.25-.05l.06.15a1,1,0,0,0,.07.16l0,0a.41.41,0,0,0-.48,0"/><path class="cls-1" d="M27.09,22.24c-.1-.1-.21-.19-.32-.28l.09-.08.11-.1a.47.47,0,0,1,.1-.1.86.86,0,0,1,.07-.1l.29.3c.1.11.22.21.35.34l.32.3.35.32.32.26-.09.09a.94.94,0,0,1-.1.1l-.1.1-.08.1-.29-.3-.34-.33-.32-.3-.36-.32"/><path class="cls-1" d="M28,21.13l-.1-.06-.07.1a.57.57,0,0,0-.08.13s-.06.09-.1.13,0,.1-.07.14,0,0-.06-.05a.12.12,0,0,0-.05-.05l-.06,0-.07,0,.13-.16.12-.14a1.31,1.31,0,0,1,.12-.15l.16-.21.16-.21.11-.16.11-.14.11-.15,0,.05.06,0,.06,0,.06,0-.1.1-.11.12-.09.12-.08.09,0,0,.05.05.14.1.65.48.4.28.34.22-.08.1-.09.11-.09.12-.06.1L29.17,22c-.1-.08-.23-.18-.38-.28l-.65-.48L28,21.13"/><path class="cls-1" d="M29.63,19.34a1.12,1.12,0,0,0-.16-.22l-.18-.23-.17-.22s0,0,0-.06l.05-.05a.34.34,0,0,1,0-.08.45.45,0,0,0,0-.08,2.22,2.22,0,0,0,.15.23l.21.31c.07.1.15.21.22.33l.22.3.14.08a.61.61,0,0,0,.14.07l.3.15A2.22,2.22,0,0,0,31,20l-.07.12-.06.12a.75.75,0,0,0-.07.12l-.06.13-.26-.17-.27-.15L30,20.1,29.89,20h-1.5l.08-.12.07-.12.06-.14.06-.13h1.1c0-.06-.08-.13-.13-.21"/><path class="cls-1" d="M63.18,22.79s-.06,0-.07,0a.09.09,0,0,1,0-.08v-9.5a.12.12,0,0,1,0-.08s0,0,.07,0H66V9.4H63.18s-.06,0-.07,0a.1.1,0,0,1,0-.08V8.55a.12.12,0,0,1,0-.08s0,0,.07,0H74.37a.08.08,0,0,1,.07,0,.12.12,0,0,1,0,.08v.74s0,.05,0,.08a.08.08,0,0,1-.07,0H70.79v3.67h1.88a1.09,1.09,0,0,1,1.1,1.08v8.53a.11.11,0,0,1,0,.08.13.13,0,0,1-.08,0Zm7.61-1h1.09V14H70.79Zm-3,0h1.1V14h-1.1Zm-2.94,0H66V14H64.87Zm2.94-8.75h1.1V9.4h-1.1Z"/><path class="cls-1" d="M63.17,7.39a.14.14,0,0,1,.1.05.11.11,0,0,1,0,.1,23.29,23.29,0,0,1-1.73,3.83V22.68a.12.12,0,0,1,0,.08.11.11,0,0,1-.08,0H59.79a.1.1,0,0,1-.11-.11V14.05a16.87,16.87,0,0,1-1.77,1.81.13.13,0,0,1-.13,0,.12.12,0,0,1-.07-.1V14.69a.28.28,0,0,1,.06-.16,16.24,16.24,0,0,0,3.13-7,.23.23,0,0,1,.22-.17Z"/><path class="cls-1" d="M92.36,11.59H85.71V7.51s0-.07,0-.08a.09.09,0,0,0-.08,0H83.31a.09.09,0,0,0-.08,0s0,0,0,.08v4.08h-6.6a.11.11,0,0,0-.08,0,.1.1,0,0,0,0,.08v.92a.13.13,0,0,0,0,.07.08.08,0,0,0,.08,0h6.57a9.33,9.33,0,0,1-6.54,8.72.22.22,0,0,0-.14.2v1a.11.11,0,0,0,0,.09.16.16,0,0,0,.1,0,12.51,12.51,0,0,0,7.82-6.1,12.51,12.51,0,0,0,7.82,6.1.15.15,0,0,0,.1,0,.09.09,0,0,0,0-.09v-1a.22.22,0,0,0-.14-.2,9.31,9.31,0,0,1-6.53-8.72h6.61a.1.1,0,0,0,.09,0,.11.11,0,0,0,0-.07V11.7a.1.1,0,0,0,0-.08.14.14,0,0,0-.09,0m2.13,2.17h1.78a.11.11,0,0,0,.08,0,.11.11,0,0,0,0-.07V10.91H108v2.68a.12.12,0,0,0,0,.08.11.11,0,0,0,.08,0h1.8a.11.11,0,0,0,.07,0,.08.08,0,0,0,0-.08V11A1.08,1.08,0,0,0,108.92,10h-2.23c.49-.57,1.06-1.26,1.89-2.39a.09.09,0,0,0,0-.11.13.13,0,0,0-.1-.06h-2.21a.31.31,0,0,0-.29.16c-.42.77-.77,1.38-1.44,2.4h-1.14a16.57,16.57,0,0,0-1.31-2.41.33.33,0,0,0-.28-.15H100a.19.19,0,0,0-.1.05.16.16,0,0,0,0,.12A17.5,17.5,0,0,1,101.15,10H99.5a14.47,14.47,0,0,0-1.58-2.44.3.3,0,0,0-.25-.12H95.85a.12.12,0,0,0-.1.06.11.11,0,0,0,0,.12A18.53,18.53,0,0,1,97.15,10H94.49a.11.11,0,0,0-.08,0,.12.12,0,0,0,0,.08v3.6a.13.13,0,0,0,0,.07.11.11,0,0,0,.08,0m15.78,3.41a.19.19,0,0,0-.08,0h-7v-.41a36.07,36.07,0,0,0,4.1-3,.1.1,0,0,0,0-.09v-.49a.34.34,0,0,0-.34-.34H97.12a.16.16,0,0,0-.09,0,.11.11,0,0,0,0,.08v.72a.1.1,0,0,0,0,.08.11.11,0,0,0,.09,0h7.14a15.65,15.65,0,0,1-1.44,1.82h-1.56a.12.12,0,0,0-.08,0s0,0,0,.08v1.49h-7a.15.15,0,0,0-.08,0,.1.1,0,0,0,0,.08V18a.08.08,0,0,0,0,.08.1.1,0,0,0,.08,0h7v3.43a.32.32,0,0,1-.33.31H98.61s-.07,0-.08,0a.14.14,0,0,0,0,.09v.72a.1.1,0,0,0,.11.11h3.32a1.27,1.27,0,0,0,1.3-1.23V18.1h7a.11.11,0,0,0,.08,0,.1.1,0,0,0,0-.08v-.74s0-.05,0-.08"/><path class="cls-1" d="M52,18.89a.09.09,0,0,0,0-.08v-11a.14.14,0,0,0,0-.09.11.11,0,0,0-.08,0H50.21s-.06,0-.07,0a.14.14,0,0,0,0,.09v11a.09.09,0,0,0,0,.08s0,0,.07,0h1.66a.11.11,0,0,0,.08,0m3.23-11.2a.14.14,0,0,0-.09,0H53.33a.11.11,0,0,0-.08,0,.16.16,0,0,0,0,.08V21.53a.32.32,0,0,1-.33.31H50.74a.14.14,0,0,0-.09,0,.24.24,0,0,0,0,.09v.72a.19.19,0,0,0,0,.08.14.14,0,0,0,.09,0h3.17a1.26,1.26,0,0,0,1.3-1.23V7.77a.41.41,0,0,0,0-.08M47.86,18.63H42.44a4.41,4.41,0,0,0,.09-.84h6.32a.19.19,0,0,0,.08,0,.11.11,0,0,0,0-.08V14.09a1.09,1.09,0,0,0-1.1-1H40.7a.11.11,0,0,0-.08,0,.12.12,0,0,0,0,.08V17.8a4.54,4.54,0,0,1-1.4,3.9.2.2,0,0,0-.06.15v.83a.1.1,0,0,0,.06.09l.06,0h0A5.25,5.25,0,0,0,42,20v2.71a.2.2,0,0,0,0,.08.14.14,0,0,0,.09,0h6.7a.11.11,0,0,0,.08,0,.08.08,0,0,0,0-.08v-3a1.09,1.09,0,0,0-1.1-1.08M42.53,14H47v.91H42.53Zm0,1.87H47v.93H42.53ZM47,21.82H43.93V19.59H47Zm2.31-10.33a7.75,7.75,0,0,1-3.13-3.73.59.59,0,0,0-.56-.37H43.85a.18.18,0,0,0-.18.12,10.26,10.26,0,0,1-4.06,4.37.21.21,0,0,0-.11.19v.76a.11.11,0,0,0,0,.1h.1A14.34,14.34,0,0,0,42,11.64v.57a.1.1,0,0,0,.11.11h5.28a.14.14,0,0,0,.09,0,.19.19,0,0,0,0-.08v-.57a8.28,8.28,0,0,0,1.76.89.11.11,0,0,0,.15-.1v-.77a.19.19,0,0,0-.1-.17m-6.91-.13A12.83,12.83,0,0,0,44.89,9.1a10.38,10.38,0,0,0,2.25,2.26Z"/><path class="cls-1" d="M9.27,40.8a32.78,32.78,0,0,1-2.94,4.48,17.35,17.35,0,0,0-.93-1.82c2.41-2.91,4.73-7.78,6.16-12.62l2.21.7c-.08.19-.28.3-.64.3A54,54,0,0,1,11,37.39l.65.19c-.06.2-.2.31-.53.37V56.71H9.27ZM13.61,34l2.21.14c0,.17-.17.31-.53.37V51.92H13.61ZM31.69,35.4H29.37a14.67,14.67,0,0,1-3.92,5.12,21.81,21.81,0,0,0,7.36,2.78,6.47,6.47,0,0,0-1.06,1.51,22.77,22.77,0,0,1-7.62-3.22A25.16,25.16,0,0,1,16.83,45a8.74,8.74,0,0,0-1.07-1.45,22.73,22.73,0,0,0,7-3,15,15,0,0,1-3.27-3.64,20,20,0,0,1-2.55,2.91,10.21,10.21,0,0,0-1.32-1.09,21.35,21.35,0,0,0,5.32-8.09l2.16.64a.58.58,0,0,1-.62.26c-.3.75-.67,1.54-1.06,2.29h10.3Zm.48,14.76a.56.56,0,0,1-.56.19c-2.69,3-8,5.15-14.08,6.22a6.67,6.67,0,0,0-1-1.54c5.79-.87,11-2.75,13.6-5.66Zm-5.71-5.94a.51.51,0,0,1-.48.22,20.92,20.92,0,0,1-7.25,3.92,6.88,6.88,0,0,0-1.09-1.14,18.81,18.81,0,0,0,7-3.67Zm2.71,2.72a.53.53,0,0,1-.5.22c-2,2-5.8,3.86-9.58,4.9a7.47,7.47,0,0,0-1-1.29c3.64-.84,7.36-2.49,9.32-4.51ZM20.47,35.4l-.12.17a14.33,14.33,0,0,0,3.67,4,13.63,13.63,0,0,0,3.42-4.17Z"/><path class="cls-1" d="M37.91,43.86a35.71,35.71,0,0,1-3.08,3.52,13.08,13.08,0,0,0-1-1.59,35.61,35.61,0,0,0,6.58-9l2.1.81a.61.61,0,0,1-.64.25,36.83,36.83,0,0,1-2.13,3.47l.53.17c0,.17-.22.31-.56.34V56.68H37.91Zm4-12.35c-.11.25-.39.25-.61.22A44.64,44.64,0,0,1,34.94,38a10.09,10.09,0,0,0-1.06-1.37,30.17,30.17,0,0,0,6-6ZM56.33,47.27l1.21.59a.44.44,0,0,1-.25.25,12.86,12.86,0,0,1-4.37,4.73A24.62,24.62,0,0,0,60.45,55a6,6,0,0,0-1.15,1.62,23.5,23.5,0,0,1-8-2.8,30.1,30.1,0,0,1-9,2.89,5.88,5.88,0,0,0-.9-1.6,29,29,0,0,0,8.35-2.32,15,15,0,0,1-3.25-3.22,19.88,19.88,0,0,1-3.39,2.88,9.75,9.75,0,0,0-1.23-1.15,17.82,17.82,0,0,0,5.77-6H44.83v-7.7A17.93,17.93,0,0,1,43,40a12.48,12.48,0,0,0-1.49-1,22.75,22.75,0,0,0,4.74-8.35l2.26.67c-.08.2-.28.28-.61.26-.25.67-.51,1.34-.81,2H59.69v1.63H46.28c-.36.7-.75,1.34-1.15,2H57.54v8.18H49.11l.78.28a.53.53,0,0,1-.58.22,15.87,15.87,0,0,1-1,1.49H56Zm-9.8-8.73v2h9.24v-2Zm0,3.33V44h9.24v-2.1Zm1.15,6.89A12.8,12.8,0,0,0,51.29,52a11.25,11.25,0,0,0,3.56-3.19Z"/><path class="cls-1" d="M76,53.91H87.72v1.85H62.41V53.91H74V46.4H65.49V44.58H74V38.12H67.17a22.39,22.39,0,0,1-3.36,5.18,10.6,10.6,0,0,0-1.57-1.15c2.3-2.44,4.29-6.69,5.43-11l2.44.67c-.08.2-.28.31-.64.31-.42,1.37-.9,2.77-1.46,4.12h6v-5.6l2.52.14c0,.19-.2.33-.59.39v5.07H86.41v1.85H76v6.46h9.41V46.4H76Z"/><path class="cls-1" d="M95.59,51.08a7.47,7.47,0,0,1-4.17,5L90,55a6.8,6.8,0,0,0,4-4.48ZM102,37.67q-.35-.59-.84-1.26c-3.78.25-7.62.47-10.06.61a.51.51,0,0,1-.39.37l-.61-1.91,2.18-.08a33.32,33.32,0,0,0,2.52-4.73l2.1.75c-.06.17-.25.23-.59.23a36.6,36.6,0,0,1-2.21,3.69l5.94-.25a17.44,17.44,0,0,0-1.91-1.93l1.35-.76a18.47,18.47,0,0,1,3.94,4.4Zm-.4.64v9c0,1.54-.72,1.74-3.78,1.74a5.69,5.69,0,0,0-.56-1.4c2.61,0,2.61,0,2.61-.34V45.59H93.49v3.78H91.75V38.31Zm-1.73,1.37H93.49v1.68h6.33Zm-6.33,4.65h6.33V42.65H93.49Zm5.85,9.55c0,.64.25.76,1.74.76h5.26c1.18,0,1.37-.28,1.49-2.5a5.1,5.1,0,0,0,1.62.62c-.2,2.83-.78,3.47-2.91,3.47H101c-2.78,0-3.48-.45-3.48-2.35V50.41l2.41.14c0,.19-.19.33-.56.39Zm5.07-1.18a15.75,15.75,0,0,0-4.51-3l1.18-1.07a16.34,16.34,0,0,1,4.56,2.86Zm8.32-15.06c1,0,1.23-.34,1.34-2.55a4.9,4.9,0,0,0,1.6.62c-.2,2.8-.76,3.5-2.78,3.5h-5.06c-2.55,0-3.22-.48-3.22-2.44v-6l2.29.17c0,.17-.17.31-.53.36v2.86a30.29,30.29,0,0,0,6.27-2.32l1.6,1.28a.58.58,0,0,1-.53.09,45.31,45.31,0,0,1-7.34,2.38v1.2c0,.7.22.87,1.57.87Zm.11,9.74c1.06,0,1.26-.36,1.34-2.63a4.36,4.36,0,0,0,1.63.65C115.58,48.25,115,49,113,49h-5.16c-2.57,0-3.24-.5-3.24-2.49V40l2.29.17c0,.17-.17.31-.53.37v2.94A31.59,31.59,0,0,0,113,41l1.62,1.31a.35.35,0,0,1-.3.12.69.69,0,0,1-.23,0,45.88,45.88,0,0,1-7.67,2.43v1.63c0,.75.22.89,1.6.89ZM114.43,56a18.12,18.12,0,0,0-5.09-4.71l1.45-.92A17.79,17.79,0,0,1,116,55Z"/><path class="cls-1" d="M143.58,47.19V49H132v5.43c0,2.36-1.34,2.38-6.52,2.38a9.22,9.22,0,0,0-.81-1.84c1.42,0,2.68.08,3.58.08,1.62,0,1.82,0,1.82-.62V49H118.55V47.19H130V44.75l1.32.09a23.71,23.71,0,0,0,4.06-2.66H123.23V40.5h14.16l.34-.12,1.46.93a.64.64,0,0,1-.42.25A30.28,30.28,0,0,1,132,46.18v1ZM121,37.14v4.5h-1.79V35.43h4.37a20.35,20.35,0,0,0-2.49-3.67l1.56-.76a18.35,18.35,0,0,1,2.83,4l-.81.42h5.94a20.2,20.2,0,0,0-2.22-4.29l1.63-.61A18,18,0,0,1,132.44,35l-1,.42h4.9a35.1,35.1,0,0,0,3.22-4.59,11,11,0,0,1,2.21.92.55.55,0,0,1-.59.22,41.6,41.6,0,0,1-2.69,3.45h4.57v6.21h-1.85v-4.5Z"/><path class="cls-1" d="M156,52.65h-5.91v2.46h-1.68v-9.6a16.4,16.4,0,0,1-1.65,2.8,10.79,10.79,0,0,0-1.06-1.54c2-2.83,3.36-7.73,4.11-12.88h-3.66V32.12h10.89v1.77h-5.41a57.1,57.1,0,0,1-1.45,6.77H156Zm-1.71-1.71V42.37h-4.2v8.57Zm17.73-8.37v1.79h-3.5V56.68h-1.79V44.36h-4.48c-.23,4.45-1.29,9-5.6,12.38a9.28,9.28,0,0,0-1.49-1.1c4.06-3.08,5.07-7.3,5.27-11.28h-3.53V42.57h3.58V33.8h-2.71V32h13.72V33.8h-3v8.77Zm-9.75,0h4.46V33.8h-4.46Z"/><path class="cls-1" d="M193.7,53.85c0,.73.14.84.9.84H197c.79,0,.93-.53,1-4.06a5.39,5.39,0,0,0,1.74.79c-.2,4-.67,5-2.55,5h-2.91c-2,0-2.58-.53-2.58-2.58V47.69h-6.16c-1.12,4.23-3.64,7.34-10.33,9a4.82,4.82,0,0,0-1-1.54c5.86-1.37,8.26-3.89,9.36-7.45H176V45.93h8c.22-1.23.36-2.55.47-4,1.91.14,2.21.17,2.49.2,0,.22-.22.36-.56.42q-.16,1.76-.42,3.36h7.73Zm-9.18-17.67c0,.2-.23.34-.56.37-.84,3.64-2.49,6.3-8.51,7.7a5.33,5.33,0,0,0-1-1.51c5.49-1.12,7-3.36,7.64-6.84Zm-7.39-.61V38.9h-1.88v-5H186V30.64l2.46.14c0,.2-.16.34-.56.39v2.69h10.9v5h-1.94V35.57Zm12.15.22,2.41.17c0,.2-.17.34-.56.39v4.79c0,.62.19.76,1.37.76h4.11c.82,0,1-.23,1.07-1.71a6.16,6.16,0,0,0,1.65.64c-.2,2.1-.76,2.66-2.52,2.66h-4.48c-2.46,0-3.05-.47-3.05-2.35Z"/><path class="cls-1" d="M215.91,54.16h11.73v1.71H202.49V54.16H214V50.52h-8.76V48.84H214V46.1l2.5.16c0,.2-.2.34-.56.37v2.21h9v1.68h-9Zm-10.78-19v3.47h-1.82V33.38H214V30.64l2.5.17c0,.19-.2.33-.56.36v2.21h10.83v5.21h-1.9V35.12Zm19.62,11.62a14.71,14.71,0,0,0-1.68-1.62c-6.3.33-13,.58-17.36.72a.47.47,0,0,1-.39.4l-.89-2.1c1.14,0,2.46,0,3.92-.06a44.4,44.4,0,0,0,2.74-4.28h-5.57V38.12h18.84V39.8H213.08l.53.19c-.06.14-.28.23-.56.23-.7,1.12-1.71,2.57-2.66,3.8,3.36-.08,7.22-.16,11-.28a32.43,32.43,0,0,0-3.31-2.26l1.23-1a33.77,33.77,0,0,1,6.78,5.12Z"/><text class="cls-2" transform="translate(241.18 55.3)">戸田研究室</text></svg>